<mxfile host="Electron" modified="2023-08-31T19:30:22.301Z" agent="Mozilla/5.0 (Macintosh; Intel Mac OS X 10_15_7) AppleWebKit/537.36 (KHTML, like Gecko) draw.io/21.6.8 Chrome/114.0.5735.289 Electron/25.5.0 Safari/537.36" etag="9cPQVp8vE4U2YB4h9RRL" version="21.6.8" type="device">
  <diagram name="Page-1" id="X1D6vfNoZL0sty7P9rpt">
    <mxGraphModel dx="1026" dy="743" grid="1" gridSize="10" guides="1" tooltips="1" connect="1" arrows="1" fold="1" page="1" pageScale="1" pageWidth="827" pageHeight="1169" math="0" shadow="0">
      <root>
        <mxCell id="0" />
        <mxCell id="1" parent="0" />
        <mxCell id="mG-GFkzSUVM_mQEE8TTe-1" value="&lt;b style=&quot;font-size: 15px;&quot;&gt;Query Identifier&lt;/b&gt;" style="rounded=1;whiteSpace=wrap;html=1;fillColor=#f5f5f5;fontColor=#333333;strokeColor=#666666;labelPosition=center;verticalLabelPosition=bottom;align=center;verticalAlign=top;fontSize=15;" parent="1" vertex="1">
          <mxGeometry x="39" y="20" width="230" height="340" as="geometry" />
        </mxCell>
        <mxCell id="mG-GFkzSUVM_mQEE8TTe-2" value="&lt;font style=&quot;font-size: 15px;&quot;&gt;ID 1&lt;/font&gt;" style="rounded=1;whiteSpace=wrap;html=1;" parent="1" vertex="1">
          <mxGeometry x="59" y="30" width="190" height="30" as="geometry" />
        </mxCell>
        <mxCell id="mG-GFkzSUVM_mQEE8TTe-3" value="&lt;font style=&quot;font-size: 15px;&quot;&gt;ID 2&lt;/font&gt;" style="rounded=1;whiteSpace=wrap;html=1;" parent="1" vertex="1">
          <mxGeometry x="59" y="70" width="190" height="30" as="geometry" />
        </mxCell>
        <mxCell id="mG-GFkzSUVM_mQEE8TTe-4" value="&lt;font style=&quot;font-size: 15px;&quot;&gt;ID 1000&lt;/font&gt;" style="rounded=1;whiteSpace=wrap;html=1;" parent="1" vertex="1">
          <mxGeometry x="59" y="320" width="190" height="30" as="geometry" />
        </mxCell>
        <mxCell id="mG-GFkzSUVM_mQEE8TTe-5" value="" style="endArrow=none;dashed=1;html=1;dashPattern=1 3;strokeWidth=2;rounded=0;" parent="1" edge="1">
          <mxGeometry width="50" height="50" relative="1" as="geometry">
            <mxPoint x="153.47" y="120" as="sourcePoint" />
            <mxPoint x="153.97" y="180" as="targetPoint" />
          </mxGeometry>
        </mxCell>
        <mxCell id="mG-GFkzSUVM_mQEE8TTe-6" value="&lt;font style=&quot;font-size: 15px;&quot;&gt;ID 345&lt;/font&gt;" style="rounded=1;whiteSpace=wrap;html=1;" parent="1" vertex="1">
          <mxGeometry x="59" y="195" width="190" height="30" as="geometry" />
        </mxCell>
        <mxCell id="mG-GFkzSUVM_mQEE8TTe-9" value="&lt;b style=&quot;font-size: 15px;&quot;&gt;Feature Weights&lt;/b&gt;" style="rounded=1;whiteSpace=wrap;html=1;fillColor=#f8cecc;strokeColor=#b85450;labelPosition=center;verticalLabelPosition=bottom;align=center;verticalAlign=top;fontSize=15;" parent="1" vertex="1">
          <mxGeometry x="299" y="20" width="230" height="340" as="geometry" />
        </mxCell>
        <mxCell id="mG-GFkzSUVM_mQEE8TTe-10" value="&lt;span style=&quot;font-size: 15px;&quot;&gt;[ 1, 0, 0, 0, 0 ]&lt;/span&gt;" style="rounded=1;whiteSpace=wrap;html=1;" parent="1" vertex="1">
          <mxGeometry x="319" y="30" width="190" height="30" as="geometry" />
        </mxCell>
        <mxCell id="mG-GFkzSUVM_mQEE8TTe-11" value="&lt;font style=&quot;font-size: 15px;&quot;&gt;[ 0, 1, 0, 0, 0 ]&lt;/font&gt;" style="rounded=1;whiteSpace=wrap;html=1;" parent="1" vertex="1">
          <mxGeometry x="319" y="70" width="190" height="30" as="geometry" />
        </mxCell>
        <mxCell id="mG-GFkzSUVM_mQEE8TTe-12" value="&lt;font style=&quot;font-size: 15px;&quot;&gt;[ 9, 12, 13, 68, 95 ]&lt;/font&gt;" style="rounded=1;whiteSpace=wrap;html=1;" parent="1" vertex="1">
          <mxGeometry x="319.5" y="320" width="190" height="30" as="geometry" />
        </mxCell>
        <mxCell id="mG-GFkzSUVM_mQEE8TTe-14" value="&lt;font style=&quot;font-size: 15px;&quot;&gt;[ 10, 13, 19, 65, 14 ]&lt;/font&gt;" style="rounded=1;whiteSpace=wrap;html=1;" parent="1" vertex="1">
          <mxGeometry x="319.5" y="195" width="190" height="30" as="geometry" />
        </mxCell>
        <mxCell id="mG-GFkzSUVM_mQEE8TTe-16" value="&lt;b style=&quot;font-size: 15px;&quot;&gt;Language Model&lt;/b&gt;" style="rounded=1;whiteSpace=wrap;html=1;fillColor=#d5e8d4;strokeColor=#82b366;labelPosition=center;verticalLabelPosition=bottom;align=center;verticalAlign=top;fontSize=15;" parent="1" vertex="1">
          <mxGeometry x="559" y="20" width="230" height="340" as="geometry" />
        </mxCell>
        <mxCell id="mG-GFkzSUVM_mQEE8TTe-17" value="&lt;span style=&quot;font-size: 15px;&quot;&gt;TF-IDF&lt;/span&gt;" style="rounded=1;whiteSpace=wrap;html=1;" parent="1" vertex="1">
          <mxGeometry x="579" y="30" width="190" height="30" as="geometry" />
        </mxCell>
        <mxCell id="mG-GFkzSUVM_mQEE8TTe-18" value="&lt;span style=&quot;font-size: 15px;&quot;&gt;BM25&lt;/span&gt;" style="rounded=1;whiteSpace=wrap;html=1;" parent="1" vertex="1">
          <mxGeometry x="579" y="70" width="190" height="30" as="geometry" />
        </mxCell>
        <mxCell id="mG-GFkzSUVM_mQEE8TTe-19" value="&lt;span style=&quot;font-size: 15px;&quot;&gt;Longformer&lt;/span&gt;" style="rounded=1;whiteSpace=wrap;html=1;" parent="1" vertex="1">
          <mxGeometry x="579" y="320" width="190" height="30" as="geometry" />
        </mxCell>
        <mxCell id="mG-GFkzSUVM_mQEE8TTe-21" value="&lt;span style=&quot;font-size: 15px;&quot;&gt;GloVe&lt;/span&gt;" style="rounded=1;whiteSpace=wrap;html=1;" parent="1" vertex="1">
          <mxGeometry x="579" y="195" width="190" height="30" as="geometry" />
        </mxCell>
        <mxCell id="mG-GFkzSUVM_mQEE8TTe-31" style="edgeStyle=orthogonalEdgeStyle;rounded=0;orthogonalLoop=1;jettySize=auto;html=1;entryX=0.5;entryY=0;entryDx=0;entryDy=0;" parent="1" source="mG-GFkzSUVM_mQEE8TTe-23" target="mG-GFkzSUVM_mQEE8TTe-25" edge="1">
          <mxGeometry relative="1" as="geometry" />
        </mxCell>
        <mxCell id="mG-GFkzSUVM_mQEE8TTe-32" style="edgeStyle=orthogonalEdgeStyle;rounded=0;orthogonalLoop=1;jettySize=auto;html=1;entryX=0.5;entryY=0;entryDx=0;entryDy=0;exitX=0.258;exitY=1.004;exitDx=0;exitDy=0;exitPerimeter=0;" parent="1" source="mG-GFkzSUVM_mQEE8TTe-23" target="mG-GFkzSUVM_mQEE8TTe-24" edge="1">
          <mxGeometry relative="1" as="geometry">
            <Array as="points">
              <mxPoint x="315" y="500" />
            </Array>
          </mxGeometry>
        </mxCell>
        <mxCell id="mG-GFkzSUVM_mQEE8TTe-33" style="edgeStyle=orthogonalEdgeStyle;rounded=0;orthogonalLoop=1;jettySize=auto;html=1;entryX=0.5;entryY=0;entryDx=0;entryDy=0;exitX=0.747;exitY=1.001;exitDx=0;exitDy=0;exitPerimeter=0;" parent="1" source="mG-GFkzSUVM_mQEE8TTe-23" target="mG-GFkzSUVM_mQEE8TTe-26" edge="1">
          <mxGeometry relative="1" as="geometry" />
        </mxCell>
        <mxCell id="mG-GFkzSUVM_mQEE8TTe-34" style="edgeStyle=orthogonalEdgeStyle;rounded=0;orthogonalLoop=1;jettySize=auto;html=1;entryX=0.5;entryY=0;entryDx=0;entryDy=0;" parent="1" source="mG-GFkzSUVM_mQEE8TTe-23" target="mG-GFkzSUVM_mQEE8TTe-27" edge="1">
          <mxGeometry relative="1" as="geometry" />
        </mxCell>
        <mxCell id="mG-GFkzSUVM_mQEE8TTe-23" value="&lt;font style=&quot;font-size: 17px;&quot;&gt;&lt;b&gt;&lt;i&gt;readnext&amp;nbsp;&lt;/i&gt;(&lt;/b&gt; &lt;b style=&quot;background-color: rgb(255, 255, 255);&quot;&gt;&lt;font style=&quot;font-size: 17px;&quot; color=&quot;#cccccc&quot;&gt;ID 345&lt;/font&gt;&lt;/b&gt;,&amp;nbsp;&lt;b style=&quot;background-color: rgb(255, 255, 255);&quot;&gt;&lt;font style=&quot;font-size: 17px;&quot; color=&quot;#ea6b66&quot;&gt;[ 10, 13, 19, 65, 14 ]&lt;/font&gt;&lt;/b&gt;, &lt;font style=&quot;font-size: 17px;&quot; color=&quot;#97d077&quot;&gt;&lt;b&gt;GloVe&lt;/b&gt;&lt;/font&gt; &lt;b&gt;)&lt;/b&gt;&lt;/font&gt;" style="rounded=1;whiteSpace=wrap;html=1;" parent="1" vertex="1">
          <mxGeometry x="209" y="440" width="410" height="60" as="geometry" />
        </mxCell>
        <mxCell id="mG-GFkzSUVM_mQEE8TTe-24" value="Citation -&amp;gt; Language" style="swimlane;whiteSpace=wrap;html=1;" parent="1" vertex="1">
          <mxGeometry x="240" y="550" width="150" height="130" as="geometry" />
        </mxCell>
        <mxCell id="mG-GFkzSUVM_mQEE8TTe-25" value="Citation Candidates" style="swimlane;whiteSpace=wrap;html=1;" parent="1" vertex="1">
          <mxGeometry x="39" y="550" width="150" height="130" as="geometry" />
        </mxCell>
        <mxCell id="mG-GFkzSUVM_mQEE8TTe-26" value="Language Candidates" style="swimlane;whiteSpace=wrap;html=1;" parent="1" vertex="1">
          <mxGeometry x="440" y="550" width="150" height="130" as="geometry" />
        </mxCell>
        <mxCell id="mG-GFkzSUVM_mQEE8TTe-27" value="Language -&amp;gt; Citation" style="swimlane;whiteSpace=wrap;html=1;" parent="1" vertex="1">
          <mxGeometry x="639" y="550" width="150" height="130" as="geometry" />
        </mxCell>
        <mxCell id="mG-GFkzSUVM_mQEE8TTe-35" value="" style="verticalLabelPosition=bottom;shadow=0;dashed=0;align=center;html=1;verticalAlign=top;strokeWidth=1;shape=mxgraph.mockup.markup.curlyBrace;whiteSpace=wrap;strokeColor=#999999;direction=west;" parent="1" vertex="1">
          <mxGeometry x="39" y="400" width="751" height="20" as="geometry" />
        </mxCell>
        <mxCell id="mG-GFkzSUVM_mQEE8TTe-37" value="" style="endArrow=none;dashed=1;html=1;dashPattern=1 3;strokeWidth=2;rounded=0;" parent="1" edge="1">
          <mxGeometry width="50" height="50" relative="1" as="geometry">
            <mxPoint x="153.47" y="240" as="sourcePoint" />
            <mxPoint x="153.97" y="300" as="targetPoint" />
          </mxGeometry>
        </mxCell>
        <mxCell id="mG-GFkzSUVM_mQEE8TTe-38" style="edgeStyle=orthogonalEdgeStyle;rounded=0;orthogonalLoop=1;jettySize=auto;html=1;exitX=0.5;exitY=1;exitDx=0;exitDy=0;" parent="1" source="mG-GFkzSUVM_mQEE8TTe-16" target="mG-GFkzSUVM_mQEE8TTe-16" edge="1">
          <mxGeometry relative="1" as="geometry" />
        </mxCell>
        <mxCell id="mG-GFkzSUVM_mQEE8TTe-39" value="" style="endArrow=none;dashed=1;html=1;dashPattern=1 3;strokeWidth=2;rounded=0;" parent="1" edge="1">
          <mxGeometry width="50" height="50" relative="1" as="geometry">
            <mxPoint x="413.47" y="120" as="sourcePoint" />
            <mxPoint x="413.97" y="180" as="targetPoint" />
          </mxGeometry>
        </mxCell>
        <mxCell id="mG-GFkzSUVM_mQEE8TTe-40" value="" style="endArrow=none;dashed=1;html=1;dashPattern=1 3;strokeWidth=2;rounded=0;" parent="1" edge="1">
          <mxGeometry width="50" height="50" relative="1" as="geometry">
            <mxPoint x="413.47" y="240" as="sourcePoint" />
            <mxPoint x="413.97" y="300" as="targetPoint" />
          </mxGeometry>
        </mxCell>
        <mxCell id="mG-GFkzSUVM_mQEE8TTe-41" value="" style="endArrow=none;dashed=1;html=1;dashPattern=1 3;strokeWidth=2;rounded=0;" parent="1" edge="1">
          <mxGeometry width="50" height="50" relative="1" as="geometry">
            <mxPoint x="673.47" y="120" as="sourcePoint" />
            <mxPoint x="673.97" y="180" as="targetPoint" />
          </mxGeometry>
        </mxCell>
        <mxCell id="mG-GFkzSUVM_mQEE8TTe-42" value="" style="endArrow=none;dashed=1;html=1;dashPattern=1 3;strokeWidth=2;rounded=0;" parent="1" edge="1">
          <mxGeometry width="50" height="50" relative="1" as="geometry">
            <mxPoint x="673.47" y="240" as="sourcePoint" />
            <mxPoint x="673.97" y="300" as="targetPoint" />
          </mxGeometry>
        </mxCell>
      </root>
    </mxGraphModel>
  </diagram>
</mxfile>
